<?xml version="1.0" encoding="UTF-8" standalone="no"?>
<!-- Created with Inkscape (http://www.inkscape.org/) -->

<svg
   xmlns:dc="http://purl.org/dc/elements/1.1/"
   xmlns:cc="http://creativecommons.org/ns#"
   xmlns:rdf="http://www.w3.org/1999/02/22-rdf-syntax-ns#"
   xmlns:svg="http://www.w3.org/2000/svg"
   xmlns="http://www.w3.org/2000/svg"
   xmlns:sodipodi="http://sodipodi.sourceforge.net/DTD/sodipodi-0.dtd"
   xmlns:inkscape="http://www.inkscape.org/namespaces/inkscape"
   width="34mm"
   height="16mm"
   viewBox="0 0 34 16"
   version="1.1"
   id="svg1918"
   inkscape:version="0.92.4 (5da689c313, 2019-01-14)"
   sodipodi:docname="logo.svg">
  <defs
     id="defs1912" />
  <sodipodi:namedview
     id="base"
     pagecolor="#ffffff"
     bordercolor="#666666"
     borderopacity="1.0"
     inkscape:pageopacity="0.0"
     inkscape:pageshadow="2"
     inkscape:zoom="5.6"
     inkscape:cx="43.028121"
     inkscape:cy="19.287393"
     inkscape:document-units="mm"
     inkscape:current-layer="layer1"
     showgrid="false"
     inkscape:window-width="1440"
     inkscape:window-height="871"
     inkscape:window-x="0"
     inkscape:window-y="800"
     inkscape:window-maximized="1" />
  <metadata
     id="metadata1915">
    <rdf:RDF>
      <cc:Work
         rdf:about="">
        <dc:format>image/svg+xml</dc:format>
        <dc:type
           rdf:resource="http://purl.org/dc/dcmitype/StillImage" />
        <dc:title />
      </cc:Work>
    </rdf:RDF>
  </metadata>
  <g
     inkscape:label="Layer 1"
     inkscape:groupmode="layer"
     id="layer1"
     transform="translate(0,-281)">
    <path
       inkscape:connector-curvature="0"
       style="display:inline;fill:#747474;fill-opacity:1;stroke:none;stroke-width:1;stroke-linecap:round;stroke-linejoin:round;stroke-miterlimit:4;stroke-dasharray:none;stroke-opacity:1"
       d="M 5.000212,280.99959 A 4.9999532,5.0000001 0 0 0 0,285.99928 a 4.9999532,5.0000001 0 0 0 0,5.3e-4 v 5.99964 a 4.9999532,5.0000001 0 0 0 4.860169,4.99556 v -2.1208 l 0.897103,-1.02526 a 1.9999998,1.9999998 0 0 1 -0.75706,0.15037 1.9999998,1.9999998 0 0 1 -2.000395,-1.99987 v -1.42421 -3.15484 -1.42059 a 1.9999998,1.9999998 0 0 1 0,-5.3e-4 1.9999998,1.9999998 0 0 1 2.000395,-1.99987 1.9999998,1.9999998 0 0 1 1.947168,1.55546 h 0.03876 l 3.0137686,3.44475 v -2.99982 a 4.9999532,5.0000001 0 0 0 0,-5.3e-4 4.9999532,5.0000001 0 0 0 -4.9996946,-4.99969 z m 1.947168,4.55528 H 4.860169 v 2.12597 l 2.1399207,2.44584 v -2.70319 -1.42369 a 1.9999998,1.9999998 0 0 1 0,-5.3e-4 1.9999998,1.9999998 0 0 0 -0.05271,-0.44441 z m 0.05271,4.57181 v 0.45217 1.42059 a 1.9999998,1.9999998 0 0 1 -0.067696,0.50642 l 1.0748694,-1.22835 z m -0.067696,2.37918 -1.175122,1.34307 a 1.9999998,1.9999998 0 0 0 1.175122,-1.34307 z M 4.860169,296.995 V 297 H 5.000212 A 4.9999532,5.0000001 0 0 1 4.860169,296.995 Z M 5.000212,297 h 1.985925 l 0.6795451,-0.7767 A 4.9999532,5.0000001 0 0 1 5.000212,297 Z m 2.6654701,-0.7767 a 4.9999532,5.0000001 0 0 0 1.8743044,-2.14198 z M 9.5399865,294.08132 9.9999066,293.55525 13.013676,297 h 2.126485 v -2.12601 l -2.515092,-2.87425 H 9.9999066 a 4.9999532,5.0000001 0 0 1 -0.4599201,2.08153 z m 3.0850825,-2.08153 h 4.374927 a 5.0000001,5.0000001 0 0 1 1.55081,-3.6115 4.5,4.5 0 0 1 -1.050582,-2.88871 4.5,4.5 0 0 1 2.499589,-4.02508 v -0.4749 h -2.999817 l -3.985803,4.55527 h 2.125968 v 2.12597 l 1.859835,-2.12597 v 3.44475 h -3.01377 l -1.99316,2.27789 z m 7.374744,-10.52499 v 7.52513 h 1.875337 v 1.00407 a 1.9999998,1.9999998 0 0 1 0.125058,-0.004 1.9999998,1.9999998 0 0 1 1.999877,1.99988 v -10.52889 a 4.5,4.5 0 0 0 -1.999877,-0.47128 4.5,4.5 0 0 0 -2.000395,0.4749 z m 4.000272,-0.004 a 4.5,4.5 0 0 1 2.500105,4.0287 4.5,4.5 0 0 1 -1.050581,2.88354 5.0000001,5.0000001 0 0 1 1.550295,3.61632 5.0000001,5.0000001 0 0 1 -2.999819,4.57956 v 0.42065 h 2.999819 v -1.74873 l 0.840258,-0.73536 2.174026,2.48409 h 3.985805 l -3.902088,-4.45968 3.902088,-3.41374 v -2.12681 h -2.125454 l -4.874635,4.26485 v -10.265 h -2.999819 z m 0,15.10812 v -4.57956 a 1.9999998,1.9999998 0 0 1 -1.999877,1.99987 1.9999998,1.9999998 0 0 1 -2.000395,-1.99987 v 4.57594 a 5.0000001,5.0000001 0 0 0 2.000395,0.42427 5.0000001,5.0000001 0 0 0 1.999877,-0.42065 z m -4.000272,-0.004 a 5.0000001,5.0000001 0 0 1 -2.999817,-4.57586 v 5.00021 h 2.999817 z m 0,-4.57594 h 1.875337 v -1.99577 a 1.9999998,1.9999998 0 0 0 -1.875337,1.99574 z m 2.000395,-8.00003 a 1.4999995,1.4999999 0 0 1 1.499649,1.50016 1.4999995,1.4999999 0 0 1 -1.499649,1.50017 1.4999995,1.4999999 0 0 1 -1.500167,-1.50017 1.4999995,1.4999999 0 0 1 1.500167,-1.50016 z"
       id="path1513-1" />
    <g
       id="g2514"
       style="fill:#000000;fill-opacity:0">
      <path
         id="path1513-2-9"
         transform="matrix(0.26458333,0,0,0.26458333,0,281)"
         d="M 26.257812 17.216797 A 7.5590547 7.5590547 0 0 1 26.457031 18.896484 A 7.5590547 7.5590547 0 0 1 26.457031 18.898438 L 26.457031 24.279297 L 26.457031 34.496094 L 30.263672 38.845703 L 26.201172 43.488281 A 7.5590544 7.5590544 0 0 1 21.759766 48.564453 L 18.369141 52.439453 L 18.369141 60.455078 A 18.897461 18.897638 0 0 0 18.898438 60.472656 A 18.897461 18.897638 0 0 0 28.972656 57.537109 L 36.056641 49.441406 A 18.897461 18.897638 0 0 0 37.794922 41.574219 L 47.716797 41.574219 L 45.328125 38.845703 L 52.861328 30.236328 L 57.222656 25.251953 L 57.222656 17.216797 L 49.1875 17.216797 L 37.794922 30.234375 L 26.404297 17.216797 L 26.257812 17.216797 z "
         style="fill:#000000;fill-opacity:0;stroke:none;stroke-width:3.77952766;stroke-linecap:round;stroke-linejoin:round;stroke-miterlimit:4;stroke-dasharray:none;stroke-opacity:1" />
      <path
         id="path1608-4-0"
         d="m 19.999601,281.47484 a 4.4999999,4.4999999 0 0 0 -2.499589,4.02507 4.4999999,4.4999999 0 0 0 1.050582,2.88872 5,5 0 0 0 -1.55081,3.61115 5,5 0 0 0 2.999817,4.57594 v -4.57594 a 1.9999998,1.9999998 0 0 1 1.875337,-1.99575 v -1.00407 h -1.875337 z"
         style="fill:#000000;fill-opacity:0;stroke:none;stroke-width:1;stroke-linecap:round;stroke-linejoin:round;stroke-miterlimit:4;stroke-dasharray:none;stroke-opacity:1"
         inkscape:connector-curvature="0" />
      <path
         id="rect1667-43-6"
         d="m 23.999873,281.47122 v 10.52856 4.57956 a 5,5 0 0 0 2.999819,-4.57956 5,5 0 0 0 -1.550295,-3.61632 4.4999999,4.4999999 0 0 0 1.050581,-2.88355 4.4999999,4.4999999 0 0 0 -2.500105,-4.02869 z"
         style="fill:#000000;fill-opacity:0;stroke:none;stroke-width:1;stroke-linecap:round;stroke-linejoin:round;stroke-miterlimit:4;stroke-dasharray:none;stroke-opacity:1"
         inkscape:connector-curvature="0" />
    </g>
    <g
       id="g849"
       style="fill:#bdbdbd;fill-opacity:1">
      <path
         id="path1513-2-9-6"
         transform="matrix(0.26458333,0,0,0.26458333,0,281)"
         d="M 26.257812 17.216797 A 7.5590547 7.5590547 0 0 1 26.457031 18.896484 A 7.5590547 7.5590547 0 0 1 26.457031 18.898438 L 26.457031 24.279297 L 26.457031 34.496094 L 30.263672 38.845703 L 26.201172 43.488281 A 7.5590544 7.5590544 0 0 1 21.759766 48.564453 L 18.369141 52.439453 L 18.369141 60.455078 A 18.897461 18.897638 0 0 0 18.898438 60.474609 A 18.897461 18.897638 0 0 0 28.972656 57.539062 L 36.056641 49.443359 A 18.897461 18.897638 0 0 0 37.794922 41.576172 L 37.794922 41.574219 L 47.716797 41.574219 L 45.328125 38.845703 L 52.861328 30.236328 L 57.222656 25.251953 L 57.222656 17.216797 L 49.1875 17.216797 L 37.794922 30.236328 L 26.404297 17.21875 L 26.257812 17.216797 z "
         style="fill:#bdbdbd;fill-opacity:1;stroke:none;stroke-width:3.77952766;stroke-linecap:round;stroke-linejoin:round;stroke-miterlimit:4;stroke-dasharray:none;stroke-opacity:1" />
      <path
         id="path1608-4-0-7"
         d="m 19.999813,281.47491 a 4.4999999,4.4999999 0 0 0 -2.499589,4.02507 4.4999999,4.4999999 0 0 0 1.050581,2.88872 5,5 0 0 0 -1.550809,3.61115 5,5 0 0 0 2.999817,4.57594 v -4.57594 a 1.9999998,1.9999998 0 0 1 1.875337,-1.99575 v -1.00407 h -1.875337 z"
         style="fill:#bdbdbd;fill-opacity:1;stroke:none;stroke-width:1;stroke-linecap:round;stroke-linejoin:round;stroke-miterlimit:4;stroke-dasharray:none;stroke-opacity:1"
         inkscape:connector-curvature="0" />
      <path
         id="rect1667-43-6-5"
         d="m 24.000085,281.47129 v 10.52856 4.57956 a 5,5 0 0 0 2.999818,-4.57956 5,5 0 0 0 -1.550294,-3.61632 4.4999999,4.4999999 0 0 0 1.050581,-2.88355 4.4999999,4.4999999 0 0 0 -2.500105,-4.02869 z"
         style="fill:#bdbdbd;fill-opacity:1;stroke:none;stroke-width:1;stroke-linecap:round;stroke-linejoin:round;stroke-miterlimit:4;stroke-dasharray:none;stroke-opacity:1"
         inkscape:connector-curvature="0" />
    </g>
  </g>
</svg>
